<?xml version="1.0" encoding="utf-8"?>
<!-- Generator: Adobe Illustrator 25.0.0, SVG Export Plug-In . SVG Version: 6.00 Build 0)  -->
<svg version="1.1" id="Mỗi_hình_1_layer_riêng" xmlns="http://www.w3.org/2000/svg" xmlns:xlink="http://www.w3.org/1999/xlink"
	 x="0px" y="0px" viewBox="0 0 4680 3120" style="enable-background:new 0 0 4680 3120;" xml:space="preserve">
<style type="text/css">
	.st0{fill:#CCE4FF;enable-background:new    ;}
	.st1{fill:#CACFFF;}
	.st2{fill:#CCE4FF;}
	.st3{fill:#7BB1E8;}
	.st4{fill:#FFFFFF;}
	.st5{fill:url(#SVGID_1_);}
	.st6{fill-rule:evenodd;clip-rule:evenodd;fill:#7BB1E8;}
	.st7{clip-path:url(#SVGID_3_);}
	.st8{clip-path:url(#SVGID_5_);}
	.st9{fill:#083B6E;}
	.st10{fill:#366D99;}
	.st11{clip-path:url(#SVGID_7_);}
	.st12{clip-path:url(#SVGID_9_);}
	.st13{opacity:0.63;fill:url(#SVGID_10_);enable-background:new    ;}
	.st14{opacity:0.63;fill:url(#SVGID_11_);enable-background:new    ;}
	.st15{opacity:0.63;fill:url(#SVGID_12_);enable-background:new    ;}
	.st16{clip-path:url(#SVGID_14_);}
	.st17{clip-path:url(#SVGID_16_);}
	.st18{clip-path:url(#SVGID_18_);}
	.st19{clip-path:url(#SVGID_20_);}
	.st20{fill:url(#SVGID_21_);}
	.st21{opacity:0.33;}
	.st22{clip-path:url(#SVGID_23_);}
	.st23{opacity:0.56;fill:#FFFFFF;enable-background:new    ;}
	.st24{fill:url(#SVGID_24_);}
	.st25{clip-path:url(#SVGID_26_);}
	.st26{clip-path:url(#SVGID_28_);}
	.st27{opacity:0.33;fill:#7BB1E8;enable-background:new    ;}
	.st28{opacity:0.53;fill:#FFFFFF;enable-background:new    ;}
	.st29{fill:#A9B5FC;}
</style>
<g>
	<path class="st0" d="M1371.5,460h881.5c38.1,0,68.9,30.9,68.9,68.9v771c0,38.1-30.9,68.9-68.9,68.9h-881.5
		c-38.1,0-68.9-30.9-68.9-68.9v-771C1302.5,490.9,1333.4,460,1371.5,460z"/>
	<g>
		<g>
			<path class="st1" d="M1533.8,566.3H2148c11.3,0,20.4,9.1,20.4,20.4l0,0c0,11.3-9.1,20.4-20.4,20.4h-614.3
				c-11.3,0-20.4-9.1-20.4-20.4l0,0C1513.3,575.4,1522.5,566.3,1533.8,566.3z"/>
			<path class="st1" d="M1650.9,662.1h304.5c11.3,0,20.4,9.1,20.4,20.4l0,0c0,11.3-9.1,20.4-20.4,20.4h-304.5
				c-11.3,0-20.4-9.1-20.4-20.4l0,0C1630.5,671.3,1639.7,662.1,1650.9,662.1z"/>
			<path class="st1" d="M1650.9,758h614.3c11.3,0,20.4,9.1,20.4,20.4l0,0c0,11.3-9.1,20.4-20.4,20.4h-614.3
				c-11.3,0-20.4-9.1-20.4-20.4l0,0C1630.5,767.2,1639.7,758,1650.9,758z"/>
			<path class="st1" d="M1533.8,853.9h154c11.3,0,20.4,9.1,20.4,20.4l0,0c0,11.3-9.1,20.4-20.4,20.4h-154
				c-11.3,0-20.4-9.1-20.4-20.4l0,0C1513.3,863,1522.5,853.9,1533.8,853.9z"/>
			<path class="st1" d="M1755.5,853.9h247.9c11.3,0,20.4,9.1,20.4,20.4l0,0c0,11.3-9.1,20.4-20.4,20.4h-247.9
				c-11.3,0-20.4-9.1-20.4-20.4l0,0C1735,863,1744.2,853.9,1755.5,853.9z"/>
			<path class="st1" d="M1650.9,949.8h264.5c11.3,0,20.4,9.1,20.4,20.4l0,0c0,11.3-9.1,20.4-20.4,20.4h-264.5
				c-11.3,0-20.4-9.1-20.4-20.4l0,0C1630.5,958.9,1639.7,949.8,1650.9,949.8z"/>
			<path class="st1" d="M1650.9,1045.6h219.3c11.3,0,20.4,9.1,20.4,20.4l0,0c0,11.3-9.1,20.4-20.4,20.4h-219.3
				c-11.3,0-20.4-9.1-20.4-20.4l0,0C1630.5,1054.8,1639.7,1045.6,1650.9,1045.6z"/>
			<path class="st1" d="M1937,1045.6h250.1c11.3,0,20.4,9.1,20.4,20.4l0,0c0,11.3-9.1,20.4-20.4,20.4H1937
				c-11.3,0-20.4-9.1-20.4-20.4l0,0C1916.6,1054.8,1925.7,1045.6,1937,1045.6z"/>
			<path class="st1" d="M1533.8,1141.5H2148c11.3,0,20.4,9.1,20.4,20.4l0,0c0,11.3-9.1,20.4-20.4,20.4h-614.3
				c-11.3,0-20.4-9.1-20.4-20.4l0,0C1513.3,1150.6,1522.5,1141.5,1533.8,1141.5z"/>
			<path class="st1" d="M1533.8,1236.6h164.7c11.3,0,20.4,9.1,20.4,20.4l0,0c0,11.3-9.1,20.4-20.4,20.4h-164.7
				c-11.3,0-20.4-9.1-20.4-20.4l0,0C1513.3,1245.8,1522.5,1236.6,1533.8,1236.6z"/>
		</g>
		<path class="st1" d="M1417.5,566.3L1417.5,566.3c11.3,0,20.4,9.1,20.4,20.4l0,0c0,11.3-9.1,20.4-20.4,20.4l0,0
			c-11.3,0-20.4-9.1-20.4-20.4l0,0C1397,575.4,1406.2,566.3,1417.5,566.3z"/>
		<path class="st1" d="M1417.5,662.1L1417.5,662.1c11.3,0,20.4,9.1,20.4,20.4l0,0c0,11.3-9.1,20.4-20.4,20.4l0,0
			c-11.3,0-20.4-9.1-20.4-20.4l0,0C1397,671.3,1406.2,662.1,1417.5,662.1z"/>
		<path class="st1" d="M1417.5,758L1417.5,758c11.3,0,20.4,9.1,20.4,20.4l0,0c0,11.3-9.1,20.4-20.4,20.4l0,0
			c-11.3,0-20.4-9.1-20.4-20.4l0,0C1397,767.2,1406.2,758,1417.5,758z"/>
		<path class="st1" d="M1417.5,853.9L1417.5,853.9c11.3,0,20.4,9.1,20.4,20.4l0,0c0,11.3-9.1,20.4-20.4,20.4l0,0
			c-11.3,0-20.4-9.1-20.4-20.4l0,0C1397,863,1406.2,853.9,1417.5,853.9z"/>
		<path class="st1" d="M1417.5,949.8L1417.5,949.8c11.3,0,20.4,9.1,20.4,20.4l0,0c0,11.3-9.1,20.4-20.4,20.4l0,0
			c-11.3,0-20.4-9.1-20.4-20.4l0,0C1397,958.9,1406.2,949.8,1417.5,949.8z"/>
		<path class="st1" d="M1417.5,1045.9L1417.5,1045.9c11.3,0,20.4,9.1,20.4,20.4l0,0c0,11.3-9.1,20.4-20.4,20.4l0,0
			c-11.3,0-20.4-9.1-20.4-20.4l0,0C1397,1055.1,1406.2,1045.9,1417.5,1045.9z"/>
		<path class="st1" d="M1417.2,1141.3L1417.2,1141.3c11.3,0,20.4,9.1,20.4,20.4l0,0c0,11.3-9.1,20.4-20.4,20.4l0,0
			c-11.3,0-20.4-9.1-20.4-20.4l0,0C1396.8,1150.4,1406,1141.3,1417.2,1141.3z"/>
		<path class="st1" d="M1417.5,1236.6L1417.5,1236.6c11.3,0,20.4,9.1,20.4,20.4l0,0c0,11.3-9.1,20.4-20.4,20.4l0,0
			c-11.3,0-20.4-9.1-20.4-20.4l0,0C1397,1245.8,1406.2,1236.6,1417.5,1236.6z"/>
	</g>
</g>
<g>
	<g>
		<path class="st2" d="M3575.7,691.4c0-23.9-24-43.4-53.6-43.4h-715.7c-29.6,0-53.6,19.4-53.6,43.4v67.2h822.8L3575.7,691.4z"/>
		<path class="st3" d="M2752.9,758.6v439.9c0,23.9,24,43.4,53.6,43.4h715.7c29.6,0,53.6-19.4,53.6-43.4V758.6H2752.9z"/>
	</g>
	<g>
		<circle class="st4" cx="3248.2" cy="700.8" r="25.6"/>
		<circle class="st4" cx="3359.6" cy="700.8" r="25.6"/>
		<circle class="st4" cx="3471" cy="700.8" r="25.6"/>
	</g>
	<g>
		
			<linearGradient id="SVGID_1_" gradientUnits="userSpaceOnUse" x1="3359.5828" y1="2217.6169" x2="3532.1829" y2="2217.6169" gradientTransform="matrix(1 0 0 -1 0 3120)">
			<stop  offset="0" style="stop-color:#5F6AE1"/>
			<stop  offset="1" style="stop-color:#747FFF"/>
		</linearGradient>
		<path class="st5" d="M3457.5,979.9l74.7-19.7c-19.5-79.4-90.8-135.3-172.6-135.3v77.2C3406.4,902.1,3447,934.3,3457.5,979.9z"/>
		<g>
			<path class="st4" d="M3259.1,1002.6c0-55.5,45-100.5,100.5-100.5c0,0,0,0,0,0v-77.2c-98.1,0-177.7,79.6-177.7,177.7
				c0,41.6,14.6,82,41.3,113.9l57.8-51.2C3266.8,1047.5,3259,1025.4,3259.1,1002.6z"/>
			<path class="st1" d="M3532.2,960.2l-74.7,19.7c1.7,7.5,2.6,15.1,2.6,22.8c0,55.5-45.8,100.9-101.4,100.4
				c-30.3-0.2-58.8-14.1-77.7-37.8l-57.8,51.2c63,75.3,175.1,85.2,250.4,22.2C3525.6,1095.2,3548.3,1026,3532.2,960.2L3532.2,960.2z
				"/>
		</g>
	</g>
	<g>
		<path class="st4" d="M2832.2,854.9h275.6c10.7,0,19.4,8.7,19.4,19.4l0,0c0,10.7-8.7,19.4-19.4,19.4h-275.6
			c-10.7,0-19.4-8.7-19.4-19.4l0,0C2812.8,863.6,2821.5,854.9,2832.2,854.9z"/>
		<path class="st4" d="M2832.2,935.2h275.6c10.7,0,19.4,8.7,19.4,19.4l0,0c0,10.7-8.7,19.4-19.4,19.4h-275.6
			c-10.7,0-19.4-8.7-19.4-19.4l0,0C2812.8,943.9,2821.5,935.2,2832.2,935.2z"/>
		<path class="st4" d="M2832.2,1015.5h275.6c10.7,0,19.4,8.7,19.4,19.4l0,0c0,10.7-8.7,19.4-19.4,19.4h-275.6
			c-10.7,0-19.4-8.7-19.4-19.4l0,0C2812.8,1024.2,2821.5,1015.5,2832.2,1015.5z"/>
		<path class="st4" d="M2832.2,1095.8h275.6c10.7,0,19.4,8.7,19.4,19.4l0,0c0,10.7-8.7,19.4-19.4,19.4h-275.6
			c-10.7,0-19.4-8.7-19.4-19.4l0,0C2812.8,1104.5,2821.5,1095.8,2832.2,1095.8z"/>
	</g>
</g>
<g>
	<path class="st6" d="M1115.6,1581.6c0.7,0.4,1.1,1.2,0.8,2c-1,5.8-1.9,11.5-2.8,17.3c0,0.9-0.7,1.6-1.5,1.7
		c-8.6,2.5-17.1,5-25.6,7.6l-2.3,0.7c1.5,14.7,3,29.4,4.6,44.2l16.9,1.4c4.1,0.3,8.1,0.7,12.2,1c0.9,0,1.6,0.6,1.8,1.4
		c2,5.4,4,10.8,6.2,16.1c0.5,0.8,0.3,1.9-0.5,2.5c-6.3,6.5-12.5,13.2-18.8,19.7c-0.9,0.9-1.1,1.5-0.2,2.7
		c8.1,11.1,16.2,22.3,24.3,33.5c0.2,0.3,0.5,0.6,0.8,1.1c1.6-0.7,3.1-1.5,4.7-2.2c7.2-3.4,14.3-6.8,21.5-10.2c0.9-0.5,2-0.3,2.7,0.4
		c4.3,3.6,8.7,7.1,13.1,10.7c0.6,0.5,0.9,1.1,0.9,1.9c-2.1,9.1-4.3,18.3-6.5,27.4l40.9,18.3c1.4-2.1,2.8-4,4.1-6
		c3.9-5.6,7.8-11.2,11.6-16.9c0.4-0.8,1.4-1.2,2.3-0.9c5.6,1,11.2,1.9,16.8,2.7c1,0,1.9,0.8,2,1.8c2.5,8.7,5.1,17.3,7.6,26
		c0.2,0.5,0.3,1.1,0.6,1.7l44.1-4.6c0.1-0.6,0.2-1.2,0.2-1.8c0.7-9,1.5-18,2.2-27c-0.1-1,0.6-2,1.6-2.2c5.3-1.9,10.6-3.9,15.8-6
		c0.9-0.5,2-0.3,2.7,0.4c6.6,6.3,13.2,12.6,19.8,18.9c0.6,0.6,1.1,1.2,2.1,0.4c11.5-8.4,23-16.8,34.6-25.1c0.1-0.1,0.2-0.2,0.3-0.4
		c-0.9-2-1.9-4-2.8-6c-3.2-6.7-6.3-13.4-9.6-20.1c-0.5-0.8-0.4-1.9,0.4-2.5c3.6-4.4,7.2-8.8,10.7-13.2c0.5-0.8,1.4-1.1,2.3-0.8
		c9,2.2,18,4.3,27,6.5c0.4,0.1,0.9,0.2,1.4,0.2l18-40.3c-6-4.2-12.1-8.4-18.1-12.6c-2-1.4-3.9-2.8-6-4.1c-0.7-0.4-1.1-1.2-0.8-2
		c1-5.8,1.9-11.5,2.8-17.3c0-0.9,0.7-1.6,1.5-1.7c8.6-2.5,17.1-5,25.6-7.6l2.3-0.7c-1.5-14.7-3-29.3-4.6-44.2c-4-0.3-7.8-0.6-11.7-1
		c-5.8-0.5-11.6-1-17.3-1.4c-0.9,0.1-1.6-0.5-1.8-1.3c-2-5.5-4.1-11-6.3-16.4c-0.4-0.8-0.2-1.7,0.5-2.2c6.3-6.6,12.5-13.2,18.8-19.7
		c0.9-1,1.2-1.6,0.3-2.8c-8.1-11-16-22-24-33c-0.3-0.5-0.7-0.9-1.1-1.5c-4.7,2.2-9.3,4.4-13.9,6.6c-4.2,2-8.3,3.9-12.4,5.9
		c-0.7,0.4-1.7,0.3-2.2-0.3c-4.4-3.7-8.9-7.3-13.4-10.8c-0.8-0.5-1.1-1.4-0.8-2.3c2.2-9,4.3-18,6.5-27c0.1-0.4,0.2-0.9,0.2-1.4
		l-40.3-18c-4.5,6.5-9.1,13-13.6,19.5c-1,1.5-2.1,2.9-3,4.4c-0.4,0.8-1.4,1.2-2.2,0.9c-5.6-1-11.2-1.9-16.8-2.7
		c-1.1,0-2-0.8-2.2-1.9c-2.5-8.8-5.2-17.6-7.8-26.5c-0.1-0.3-0.2-0.7-0.4-1.1l-44.1,4.6c-0.3,3.3-0.5,6.5-0.8,9.6
		c-0.5,6.5-1.1,12.9-1.5,19.4c0,0.9-0.6,1.7-1.5,1.9c-5.3,2-10.7,4-15.9,6.1c-0.9,0.5-2,0.3-2.6-0.5c-6.5-6.2-13.1-12.4-19.6-18.7
		c-1-0.9-1.6-1.2-2.8-0.3c-11,8.1-22.1,16.1-33.2,24.1c-0.4,0.3-0.8,0.6-1.3,1c2.2,4.7,4.4,9.3,6.6,13.9c1.9,4.1,3.9,8.2,5.9,12.3
		c0.5,0.8,0.3,1.9-0.4,2.5c-3.6,4.4-7.2,8.8-10.7,13.2c-0.5,0.8-1.4,1.1-2.3,0.8c-9-2.2-18-4.3-27-6.5c-0.4-0.1-0.9-0.2-1.4-0.2
		l-18,40.3c6,4.2,12.1,8.4,18.1,12.6C1111.6,1578.8,1113.5,1580.3,1115.6,1581.6z M1299.1,1523.2c50.7,22.7,73.5,82.3,50.7,133
		c-22.7,50.7-82.3,73.5-133,50.7c-50.7-22.7-73.5-82.3-50.7-133c0,0,0,0,0,0C1188.9,1523.2,1248.4,1500.6,1299.1,1523.2z"/>
	<g>
		<defs>
			<path id="SVGID_2_" d="M1115.6,1581.6c0.7,0.4,1.1,1.2,0.8,2c-1,5.8-1.9,11.5-2.8,17.3c0,0.9-0.7,1.6-1.5,1.7
				c-8.6,2.5-17.1,5-25.6,7.6l-2.3,0.7c1.5,14.7,3,29.4,4.6,44.2l16.9,1.4c4.1,0.3,8.1,0.7,12.2,1c0.9,0,1.6,0.6,1.8,1.4
				c2,5.4,4,10.8,6.2,16.1c0.5,0.8,0.3,1.9-0.5,2.5c-6.3,6.5-12.5,13.2-18.8,19.7c-0.9,0.9-1.1,1.5-0.2,2.7
				c8.1,11.1,16.2,22.3,24.3,33.5c0.2,0.3,0.5,0.6,0.8,1.1c1.6-0.7,3.1-1.5,4.7-2.2c7.2-3.4,14.3-6.8,21.5-10.2
				c0.9-0.5,2-0.3,2.7,0.4c4.3,3.6,8.7,7.1,13.1,10.7c0.6,0.5,0.9,1.1,0.9,1.9c-2.1,9.1-4.3,18.3-6.5,27.4l40.9,18.3
				c1.4-2.1,2.8-4,4.1-6c3.9-5.6,7.8-11.2,11.6-16.9c0.4-0.8,1.4-1.2,2.3-0.9c5.6,1,11.2,1.9,16.8,2.7c1,0,1.9,0.8,2,1.8
				c2.5,8.7,5.1,17.3,7.6,26c0.2,0.5,0.3,1.1,0.6,1.7l44.1-4.6c0.1-0.6,0.2-1.2,0.2-1.8c0.7-9,1.5-18,2.2-27c-0.1-1,0.6-2,1.6-2.2
				c5.3-1.9,10.6-3.9,15.8-6c0.9-0.5,2-0.3,2.7,0.4c6.6,6.3,13.2,12.6,19.8,18.9c0.6,0.6,1.1,1.2,2.1,0.4
				c11.5-8.4,23-16.8,34.6-25.1c0.1-0.1,0.2-0.2,0.3-0.4c-0.9-2-1.9-4-2.8-6c-3.2-6.7-6.3-13.4-9.6-20.1c-0.5-0.8-0.4-1.9,0.4-2.5
				c3.6-4.4,7.2-8.8,10.7-13.2c0.5-0.8,1.4-1.1,2.3-0.8c9,2.2,18,4.3,27,6.5c0.4,0.1,0.9,0.2,1.4,0.2l18-40.3
				c-6-4.2-12.1-8.4-18.1-12.6c-2-1.4-3.9-2.8-6-4.1c-0.7-0.4-1.1-1.2-0.8-2c1-5.8,1.9-11.5,2.8-17.3c0-0.9,0.7-1.6,1.5-1.7
				c8.6-2.5,17.1-5,25.6-7.6l2.3-0.7c-1.5-14.7-3-29.3-4.6-44.2c-4-0.3-7.8-0.6-11.7-1c-5.8-0.5-11.6-1-17.3-1.4
				c-0.9,0.1-1.6-0.5-1.8-1.3c-2-5.5-4.1-11-6.3-16.4c-0.4-0.8-0.2-1.7,0.5-2.2c6.3-6.6,12.5-13.2,18.8-19.7c0.9-1,1.2-1.6,0.3-2.8
				c-8.1-11-16-22-24-33c-0.3-0.5-0.7-0.9-1.1-1.5c-4.7,2.2-9.3,4.4-13.9,6.6c-4.2,2-8.3,3.9-12.4,5.9c-0.7,0.4-1.7,0.3-2.2-0.3
				c-4.4-3.7-8.9-7.3-13.4-10.8c-0.8-0.5-1.1-1.4-0.8-2.3c2.2-9,4.3-18,6.5-27c0.1-0.4,0.2-0.9,0.2-1.4l-40.3-18
				c-4.5,6.5-9.1,13-13.6,19.5c-1,1.5-2.1,2.9-3,4.4c-0.4,0.8-1.4,1.2-2.2,0.9c-5.6-1-11.2-1.9-16.8-2.7c-1.1,0-2-0.8-2.2-1.9
				c-2.5-8.8-5.2-17.6-7.8-26.5c-0.1-0.3-0.2-0.7-0.4-1.1l-44.1,4.6c-0.3,3.3-0.5,6.5-0.8,9.6c-0.5,6.5-1.1,12.9-1.5,19.4
				c0,0.9-0.6,1.7-1.5,1.9c-5.3,2-10.7,4-15.9,6.1c-0.9,0.5-2,0.3-2.6-0.5c-6.5-6.2-13.1-12.4-19.6-18.7c-1-0.9-1.6-1.2-2.8-0.3
				c-11,8.1-22.1,16.1-33.2,24.1c-0.4,0.3-0.8,0.6-1.3,1c2.2,4.7,4.4,9.3,6.6,13.9c1.9,4.1,3.9,8.2,5.9,12.3
				c0.5,0.8,0.3,1.9-0.4,2.5c-3.6,4.4-7.2,8.8-10.7,13.2c-0.5,0.8-1.4,1.1-2.3,0.8c-9-2.2-18-4.3-27-6.5c-0.4-0.1-0.9-0.2-1.4-0.2
				l-18,40.3c6,4.2,12.1,8.4,18.1,12.6C1111.6,1578.8,1113.5,1580.3,1115.6,1581.6z M1299.1,1523.2c50.7,22.7,73.5,82.3,50.7,133
				c-22.7,50.7-82.3,73.5-133,50.7c-50.7-22.7-73.5-82.3-50.7-133c0,0,0,0,0,0C1188.9,1523.2,1248.4,1500.6,1299.1,1523.2z"/>
		</defs>
		<clipPath id="SVGID_3_">
			<use xlink:href="#SVGID_2_"  style="overflow:visible;"/>
		</clipPath>
		<g class="st7">
			<circle class="st3" cx="1210.5" cy="1591.6" r="163.9"/>
		</g>
	</g>
</g>
<g>
	<path class="st3" d="M1067,1867.2l-22.6-1v120.9c0,0,173.8,221.8,330.3,331.8c230.1,161.7,799.3,432.3,1482.1,162.2
		c553-218.8,690.7-455.7,690.7-455.7l-16.7-59l-26.5,2.9L1067,1867.2z"/>
	<g>
		<path class="st2" d="M1044.3,1866.2c0,0,315.5,458.3,822.9,581.1c554.5,134.2,1079.5,17.7,1663.5-480.8l-461.1-235
			c0,0-363.8,269.4-890.8,217.3s-751.1-327.2-751.1-327.2L1044.3,1866.2z"/>
		<g>
			<defs>
				<path id="SVGID_4_" d="M1044.3,1866.2c0,0,315.5,458.3,822.9,581.1c554.5,134.2,1079.5,17.7,1663.5-480.8l-461.1-235
					c0,0-363.8,269.4-890.8,217.3s-751.1-327.2-751.1-327.2L1044.3,1866.2z"/>
			</defs>
			<clipPath id="SVGID_5_">
				<use xlink:href="#SVGID_4_"  style="overflow:visible;"/>
			</clipPath>
			<g class="st8">
				<ellipse class="st2" cx="1395.4" cy="1884.3" rx="158.3" ry="59"/>
				<polygon class="st2" points="2868.7,1991.4 3195.8,2189.1 3432.7,2023.5 3122.4,1852.3 				"/>
			</g>
		</g>
	</g>
</g>
<g>
	<path class="st9" d="M1965.8,2254.3c-2,0.2-10.6,9.1-10.6,9.1v40.1c0,0,406.7,86.1,785.7-20.1l48-212.2l-8.8-45.7l-17.7,16.2
		L1965.8,2254.3z"/>
	<path class="st10" d="M2024.7,2060.4c0,0,498.8,40.2,755.5-35l-53.1,222.7c0,0-376.5,93.4-771.8,15.2L2024.7,2060.4z"/>
</g>
<g>
	<path class="st10" d="M2337.2,910.8c0,0-24.9-25.1-32.6-70.5s54.2-105.7,165.8-101.8s195.2,62.9,200.6,160.3s-49.5,193-133.2,210.9
		L2337.2,910.8z"/>
	<g>
		<defs>
			<path id="SVGID_6_" d="M2337.2,910.8c0,0-24.9-25.1-32.6-70.5s54.2-105.7,165.8-101.8s195.2,62.9,200.6,160.3
				s-49.5,193-133.2,210.9L2337.2,910.8z"/>
		</defs>
		<clipPath id="SVGID_7_">
			<use xlink:href="#SVGID_6_"  style="overflow:visible;"/>
		</clipPath>
		<g class="st11">
			<path class="st9" d="M2293,827.5c0,0,22.9,29.2,119.5,30.7s127.8-1.7,134.7,35.1s-1.7,68.1-2.9,104.5s18.2,94.6,96.4,49.9
				l-69.8,75.7l-66.5-0.8c0,0-50.6-96.4-53.3-99.1s7.2-103.1,7.2-103.1l-135.2,8.8l-52.6-90.5L2293,827.5z"/>
		</g>
	</g>
</g>
<g>
	<path class="st1" d="M2431.6,1219.8l-24.6-6.4c0,0-141.6,34.4-187.3,77.7s-154.9,337.7-166.6,367.2c0,0,36.1,103.2,154.9,84.1
		l8.4,209.7c0,0,434,32.7,600.1-90.2l-16.1-99.8c0,0,95.4,12.8,157.3-40.3c0,0-35.4-125.5-51.8-182.2s-38.3-158.3-63.9-200.9
		s-153-121.3-251.4-129.1c0,0-11.5,8.5-12.5,9.2S2431.6,1219.8,2431.6,1219.8z"/>
	<g>
		<defs>
			<path id="SVGID_8_" d="M2431.6,1219.8l-24.6-6.4c0,0-141.6,34.4-187.3,77.7s-154.9,337.7-166.6,367.2c0,0,36.1,103.2,154.9,84.1
				l8.4,209.7c0,0,434,32.7,600.1-90.2l-16.1-99.8c0,0,95.4,12.8,157.3-40.3c0,0-35.4-125.5-51.8-182.2s-38.3-158.3-63.9-200.9
				s-153-121.3-251.4-129.1c0,0-11.5,8.5-12.5,9.2S2431.6,1219.8,2431.6,1219.8z"/>
		</defs>
		<clipPath id="SVGID_9_">
			<use xlink:href="#SVGID_8_"  style="overflow:visible;"/>
		</clipPath>
		<g class="st12">
			<linearGradient id="SVGID_10_" gradientUnits="userSpaceOnUse" x1="2204.9829" y1="1709.9095" x2="2828.8069" y2="1709.9095">
				<stop  offset="0" style="stop-color:#5F6AE1"/>
				<stop  offset="1" style="stop-color:#747FFF"/>
			</linearGradient>
			<path class="st13" d="M2822.2,1790.1l-21.9-28.1l-15.7-4.9c0,0-22.6-186.8-31.7-347.3c0,0,15.5,434.2-192.5,489.5
				s-355.4,38.3-355.4,38.3s82.6,74.6,82.6,72.4s445.4-50.9,445.4-50.9l95.8-44.6L2822.2,1790.1z"/>
			<linearGradient id="SVGID_11_" gradientUnits="userSpaceOnUse" x1="2053.0811" y1="1593.611" x2="2253.6492" y2="1593.611">
				<stop  offset="0" style="stop-color:#5F6AE1"/>
				<stop  offset="1" style="stop-color:#747FFF"/>
			</linearGradient>
			<path class="st14" d="M2189.8,1769.3l18.1-27c0,0,29.5-218.3,45.7-324.4c0,0-83.8,299.6-200.6,302.3L2189.8,1769.3"/>
			<linearGradient id="SVGID_12_" gradientUnits="userSpaceOnUse" x1="2578.0969" y1="1469.6215" x2="3001.3538" y2="1469.6215">
				<stop  offset="0" style="stop-color:#5F6AE1"/>
				<stop  offset="1" style="stop-color:#747FFF"/>
			</linearGradient>
			<path class="st15" d="M2583,1199.9c0,0.7-4.9,18.8-4.9,18.8s59,12.9,112.1,38s130.3,61.9,151.4,124.4s98.8,358.4,98.8,358.4
				l61-10.3L2876,1258.6L2583,1199.9z"/>
		</g>
	</g>
</g>
<g>
	<path class="st2" d="M2334.1,880.6c0,0-14.6,187.3,18.4,229.1s90,13.8,99.8,16.7s13.1,60.5-11.8,73.9s-33.4,13.1-33.4,13.1
		s16.4,59,72.1,61.3s74.7-12.5,90.8-31.1s20.6-34.1,20.6-34.1s-34.7-10-39-24.6s-12.6-69-8.8-80.1s-4.1-24.3-9.7-38.5
		s-3.6-21,8.7-25.4s19.5-20.6,17-38.8s-26.4-41.1-48-14.6c0,0-0.7-38.5-1.2-59.4s-18.4-34.9-39.6-34.9S2412.6,903.4,2334.1,880.6z"
		/>
	<g>
		<defs>
			<path id="SVGID_13_" d="M2334.1,880.6c0,0-14.6,187.3,18.4,229.1s90,13.8,99.8,16.7s13.1,60.5-11.8,73.9s-33.4,13.1-33.4,13.1
				s16.4,59,72.1,61.3s74.7-12.5,90.8-31.1s20.6-34.1,20.6-34.1s-34.7-10-39-24.6s-12.6-69-8.8-80.1s-4.1-24.3-9.7-38.5
				s-3.6-21,8.7-25.4s19.5-20.6,17-38.8s-26.4-41.1-48-14.6c0,0-0.7-38.5-1.2-59.4s-18.4-34.9-39.6-34.9S2412.6,903.4,2334.1,880.6z
				"/>
		</defs>
		<clipPath id="SVGID_14_">
			<use xlink:href="#SVGID_13_"  style="overflow:visible;"/>
		</clipPath>
		<g class="st16">
			<path class="st3" d="M2317.3,898.3c0,0,11.6,15.7,64.6,18.7s94.4-11.3,104.2,10.8s13.9,78.3,13.9,78.3s32.3-31.9,65.5-17.9
				l7.4-18.2l-52.1-4.7l-4.4,5.9l4.4-78.7l-71.8-22.1l-122.9-5.9L2317.3,898.3z"/>
			<path class="st3" d="M2450.8,1130.3c0.1-0.6-1.8-4.1-1.8-4.1s47.6-11.5,65.8-22.2s-13.4,30.4-48.7,41.5
				S2450.8,1130.3,2450.8,1130.3z"/>
		</g>
	</g>
</g>
<g>
	<path class="st2" d="M2798.9,1757.1c0,0,7.9,26.5,0,56s-85.2,209.3-180.3,322.1l10.9,146.3c0,0,90.1-112.4,126.3-159.6
		s162-240.1,177.7-269.6s0-112.9,0-112.9L2798.9,1757.1z"/>
	<g>
		<defs>
			<path id="SVGID_15_" d="M2798.9,1757.1c0,0,7.9,26.5,0,56s-85.2,209.3-180.3,322.1l10.9,146.3c0,0,90.1-112.4,126.3-159.6
				s162-240.1,177.7-269.6s0-112.9,0-112.9L2798.9,1757.1z"/>
		</defs>
		<clipPath id="SVGID_16_">
			<use xlink:href="#SVGID_15_"  style="overflow:visible;"/>
		</clipPath>
		<g class="st17">
			<path class="st3" d="M2850.9,1745.3c0,0,43.9,8.3,53.4,31.2s2.2,62.4-26.9,116.9s-278.7,401.2-278.7,401.2l65.6,7.7l308-408.9
				l23.6-115.6l-45.5-81.2L2850.9,1745.3z"/>
		</g>
	</g>
</g>
<rect x="1302" y="1263" transform="matrix(0.7515 -0.6598 0.6598 0.7515 -471.6025 1308.4677)" class="st10" width="398.2" height="34.5"/>
<g>
	<g>
		<path class="st3" d="M1630.6,1224.1c0,0-86.9-66.4-26-119.2c64.3-55.8,122.3,42.5,122.3,42.5s108.6-46.7,236.5,128.8l-277.7,204.5
			C1685.6,1480.7,1574,1318,1630.6,1224.1z"/>
		<g>
			<defs>
				<path id="SVGID_17_" d="M1630.6,1224.1c0,0-86.9-66.4-26-119.2c64.3-55.8,122.3,42.5,122.3,42.5s108.6-46.7,236.5,128.8
					l-277.7,204.5C1685.6,1480.7,1574,1318,1630.6,1224.1z"/>
			</defs>
			<clipPath id="SVGID_18_">
				<use xlink:href="#SVGID_17_"  style="overflow:visible;"/>
			</clipPath>
			<g class="st18">
				<path class="st10" d="M1677.8,1084.6c0,0,22.2,75.3,0,104.4c0,0,30.2-39.5,92.8-33.3s157,115,157,115l46.9,11.8l-18-61.9
					l-154-90.1l-73.4,8.8L1677.8,1084.6z"/>
			</g>
		</g>
	</g>
	
		<ellipse transform="matrix(0.8022 -0.5971 0.5971 0.8022 -462.2753 1362.3583)" class="st10" cx="1824.7" cy="1378.8" rx="172.4" ry="55.7"/>
	<path class="st4" d="M1757.1,1397.1c0,0,42.5-54.9,103.1-78.2c0,0,53.9,54.5-7.1,99.6S1757.1,1397.1,1757.1,1397.1z"/>
	
		<rect x="1329.6" y="1439.9" transform="matrix(0.9935 -0.1137 0.1137 0.9935 -177.5522 163.6956)" class="st10" width="34.5" height="398.2"/>
	<circle class="st10" cx="1330.6" cy="1434.1" r="57"/>
	<circle class="st3" cx="1330.6" cy="1434.1" r="30.1"/>
	<g>
		<path class="st3" d="M1496.8,1883.2c0,22.3-58.1,40.4-129.8,40.4s-129.8-18.1-129.8-40.4s58.1-60,129.8-60
			S1496.8,1860.9,1496.8,1883.2z"/>
		<g>
			<defs>
				<path id="SVGID_19_" d="M1496.8,1883.2c0,22.3-58.1,40.4-129.8,40.4s-129.8-18.1-129.8-40.4s58.1-60,129.8-60
					S1496.8,1860.9,1496.8,1883.2z"/>
			</defs>
			<clipPath id="SVGID_20_">
				<use xlink:href="#SVGID_19_"  style="overflow:visible;"/>
			</clipPath>
			<g class="st19">
				<path class="st10" d="M1262.1,1836.7c0,0-17.7,43.8,32.9,50.1s109.6,9.8,143.5-7.9s10.5-49,10.5-49l58.9,19.5l12.1,57.9
					l-44.7,33l-214.8,3.9l-41.9-58L1262.1,1836.7z"/>
			</g>
		</g>
	</g>
</g>
<g>
	
		<linearGradient id="SVGID_21_" gradientUnits="userSpaceOnUse" x1="3200.3889" y1="1033.5449" x2="3433.1741" y2="1033.5449" gradientTransform="matrix(1 0 0 -1 0 3120)">
		<stop  offset="0" style="stop-color:#5F6AE1"/>
		<stop  offset="1" style="stop-color:#747FFF"/>
	</linearGradient>
	<polygon class="st20" points="3362.3,2038.1 3431.8,2002.5 3433.2,2013 3201.8,2170.4 3200.4,2159.9 	"/>
	<polygon class="st1" points="3179,2133.1 3200.4,2159.9 3431.8,2002.5 3112.9,1799.7 2893.5,1972 	"/>
	<path class="st4" d="M3411.6,2006.4c0,0-42.8-19.7-1.5-79.1L3184,2078.5l8.7,74.4L3411.6,2006.4z"/>
	<polygon class="st1" points="3360.9,1954.1 3417.7,1927.1 3419.2,1938.8 3192.2,2092.9 3190.7,2081.2 3191.4,2074.9 	"/>
	<g class="st21">
		<polygon class="st3" points="3174.1,2083.7 3190.7,2081.2 3417.7,1927.1 3106.7,1745.3 2883.8,1893.3 2895.2,1918.2 		"/>
		<g>
			<defs>
				<polygon id="SVGID_22_" points="3174.1,2083.7 3190.7,2081.2 3417.7,1927.1 3106.7,1745.3 2883.8,1893.3 2895.2,1918.2 				"/>
			</defs>
			<clipPath id="SVGID_23_">
				<use xlink:href="#SVGID_22_"  style="overflow:visible;"/>
			</clipPath>
			<g class="st22">
				<path class="st3" d="M2976.9,1803.2c1.9,1.5,121.1,18.5,202.9,99.8s115.2,140.3,115.2,140.3l164.9-103.3l-210.7-139.1
					l-195.2-54.7L2976.9,1803.2z"/>
			</g>
		</g>
	</g>
	<polygon class="st23" points="3358.8,1919.7 3171.2,2040.8 3097.9,1998.4 3287.6,1877.3 	"/>
	
		<linearGradient id="SVGID_24_" gradientUnits="userSpaceOnUse" x1="2883.781" y1="1088.1484" x2="3201.75" y2="1088.1484" gradientTransform="matrix(1 0 0 -1 0 3120)">
		<stop  offset="0" style="stop-color:#5F6AE1"/>
		<stop  offset="1" style="stop-color:#747FFF"/>
	</linearGradient>
	<polygon class="st24" points="2894.9,1982.5 2883.8,1893.3 3190.7,2081.2 3201.8,2170.4 	"/>
</g>
<g>
	<polygon class="st10" points="3362.3,1934.9 3431.8,1899.3 3433.2,1909.8 3201.8,2067.1 3200.4,2056.6 	"/>
	<polygon class="st9" points="3179,2029.9 3200.4,2056.6 3431.8,1899.3 3112.9,1696.5 2893.5,1868.8 	"/>
	<path class="st4" d="M3411.6,1903.2c0,0-42.8-19.7-1.5-79.1L3184,1975.3l8.7,74.4L3411.6,1903.2z"/>
	<polygon class="st9" points="3360.9,1850.8 3417.7,1823.8 3419.2,1835.6 3192.2,1989.7 3190.7,1978 3191.4,1971.7 	"/>
	<g>
		<polygon class="st10" points="3174.1,1980.4 3190.7,1978 3417.7,1823.8 3106.7,1642 2883.8,1790.1 2895.2,1814.9 		"/>
		<g>
			<defs>
				<polygon id="SVGID_25_" points="3174.1,1980.4 3190.7,1978 3417.7,1823.8 3106.7,1642 2883.8,1790.1 2895.2,1814.9 				"/>
			</defs>
			<clipPath id="SVGID_26_">
				<use xlink:href="#SVGID_25_"  style="overflow:visible;"/>
			</clipPath>
			<g class="st25">
				<path class="st9" d="M2976.9,1699.9c1.9,1.5,121.1,18.5,202.9,99.8S3295,1940,3295,1940l164.9-103.3l-210.7-139.1l-151.4-86.5
					L2976.9,1699.9z"/>
			</g>
		</g>
	</g>
	<polygon class="st23" points="3358.8,1816.5 3171.2,1937.6 3097.9,1895.1 3287.6,1774.1 	"/>
	<polygon class="st9" points="2894.9,1879.3 2883.8,1790.1 3190.7,1978 3201.8,2067.1 	"/>
</g>
<g>
	<path class="st10" d="M1598.4,1594.9l-9.8-12.2l41.3-23.7c0,0,491.1,262,942.4,138.1l34.7,35.1l-7.1,16.1
		c0,0-280.2,109.1-572.2,22.6S1598.4,1594.9,1598.4,1594.9z"/>
	<polygon class="st10" points="2114.6,2459.6 2118.5,2469.9 2215,2409.7 2070.5,2392.9 	"/>
	<polygon class="st3" points="1986.2,2316 1955.3,2445.8 2118.5,2469.9 2158.3,2341.6 	"/>
	<g>
		<path class="st3" d="M1588.5,1582.7c0,0,502.9,300.1,1018.3,149.5l33.8,575c0,0-583.1,191-988.7-147.1L1588.5,1582.7z"/>
		<g>
			<defs>
				<path id="SVGID_27_" d="M1588.5,1582.7c0,0,502.9,300.1,1018.3,149.5l33.8,575c0,0-583.1,191-988.7-147.1L1588.5,1582.7z"/>
			</defs>
			<clipPath id="SVGID_28_">
				<use xlink:href="#SVGID_27_"  style="overflow:visible;"/>
			</clipPath>
			<g class="st26">
				<path class="st27" d="M1787.8,2299.7c0,0,296.2,67.8,563.1-171.1s261-441.1,261-441.1l51.6,664.4l-550.1,59.8L1787.8,2299.7z"/>
			</g>
		</g>
	</g>
	
		<ellipse transform="matrix(0.9979 -6.421880e-02 6.421880e-02 0.9979 -125.3302 137.1043)" class="st28" cx="2070.1" cy="2018.2" rx="106.9" ry="114.8"/>
</g>
<g>
	<path class="st29" d="M850.6,823.7h281.8c27,0,48.9,21.9,48.9,48.9v173.4c0,27-21.9,48.9-48.9,48.9H850.6
		c-27,0-48.9-21.9-48.9-48.9V872.6C801.7,845.6,823.6,823.7,850.6,823.7z"/>
	<g>
		<path class="st4" d="M836.3,944.3l97-45.1v21.4L860,952.8v0.4l73.4,32.1v21.4l-97-45.1V944.3z"/>
		<path class="st4" d="M957.1,1026.2l43.2-146.5h20.4l-43.2,146.5H957.1z"/>
		<path class="st4" d="M1135.9,962.3l-97,44.5v-21.4l75-32.1v-0.4l-75-32.1v-21.4l97,44.5V962.3z"/>
	</g>
</g>
<g>
	<path class="st29" d="M3181.8,1407.7h243.4c23.3,0,42.3,18.9,42.3,42.3v149.8c0,23.3-18.9,42.3-42.3,42.3h-243.4
		c-23.3,0-42.3-18.9-42.3-42.3v-149.8C3139.6,1426.6,3158.5,1407.7,3181.8,1407.7z"/>
	<g>
		<path class="st4" d="M3200.1,1510c13.4-0.6,14.8-7.6,14.8-13.4c-0.1-5.1-0.5-10.1-1.2-15.2c-0.6-5.1-0.9-10.2-1-15.4
			c0-18.3,11.5-26.3,29.6-26.3h6.8v16.5h-3.5c-8.8,0-11.9,5.3-11.9,13.8c0,3.5,0.6,7,1,11.1c0.6,4.5,0.9,8.9,1,13.4
			c0.2,14.6-5.8,20.2-16.5,22.6v0.4c10.7,2.1,16.7,7.8,16.5,22.6c-0.1,4.6-0.4,9.1-1,13.6c-0.4,4.1-1,7.6-1,10.9
			c0,8.6,2.9,14,11.9,14h3.5v16.3h-7c-17.3,0-29.4-7-29.4-26.5c0-5.1,0.4-10.3,1-15.4c0.7-5,1.1-10,1.2-15c0-5.4-1.4-12.8-14.8-13.4
			L3200.1,1510z"/>
		<path class="st4" d="M3271.2,1582.5c6.2-18,11-36.5,14.2-55.3l29.8-1.9c-6.4,19.8-15.2,40.3-24.5,55.4L3271.2,1582.5z
			 M3281.7,1481c0-10.5,7-17.9,17.3-17.9s17.1,7.2,17.3,17.9c0,10.1-6.8,17.7-17.3,17.7C3288.7,1498.7,3281.5,1491.1,3281.7,1481
			L3281.7,1481z"/>
		<path class="st4" d="M3392.6,1524.8c-13.2,0.6-14.8,8-14.8,13.4c0.1,5,0.5,10,1.2,15c0.7,5.1,1.1,10.2,1.2,15.4
			c0,19.5-12.1,26.5-29.6,26.5h-7v-16.3h3.5c8.9-0.2,11.9-5.4,11.9-14c-0.1-3.7-0.4-7.3-1-10.9c-0.6-4.5-0.9-9.1-1-13.6
			c-0.2-14.8,5.8-20.4,16.7-22.6v-0.4c-10.9-2.3-16.9-8-16.7-22.6c0.1-4.5,0.4-9,1-13.4c0.6-3.7,0.9-7.4,1-11.1
			c0-8.6-3.1-13.6-11.9-13.8h-3.5v-16.5h6.8c18.3,0,29.8,8,29.8,26.3c-0.1,5.1-0.5,10.3-1.2,15.4c-0.7,5-1,10.1-1.2,15.2
			c0,5.8,1.6,12.8,14.8,13.4L3392.6,1524.8z"/>
	</g>
</g>
</svg>
