<svg id="Layer_1" data-name="Layer 1" xmlns="http://www.w3.org/2000/svg" viewBox="0 0 146 75">
  <defs>
    <style>
      .cls-1 {
        fill: #fff;
      }

      .cls-2 {
        fill: #00f3ff;
      }
    </style>
  </defs>
  <g>
    <path class="cls-1" d="M15.451,18.208c-1.9,0-3.187.68-3.187,2.041,0,4.62,13.358,2.041,13.322,11.066,0,4.907-4.262,7.556-9.813,7.556A17.6,17.6,0,0,1,4.708,34.9l2.256-4.62a14.842,14.842,0,0,0,8.881,3.761c2.328,0,3.725-.859,3.725-2.4,0-4.728-13.359-1.97-13.359-10.852,0-4.548,3.9-7.413,9.706-7.413A17.915,17.915,0,0,1,25.443,16.1l-2.185,4.691A17.488,17.488,0,0,0,15.451,18.208Z"/>
    <path class="cls-1" d="M34.469,19.426V38.692H28.954V19.426Zm-.071-5.48a2.687,2.687,0,1,1-5.372,0,2.687,2.687,0,1,1,5.372,0Z"/>
    <path class="cls-1" d="M71.715,26.588v12.1h-5.48V28.2c0-2.47-1.432-3.939-3.724-3.939-2.65.036-4.261,2.113-4.261,4.906v9.526H52.77V28.2c0-2.47-1.433-3.939-3.688-3.939-2.686.036-4.3,2.113-4.3,4.906v9.526H39.269V19.426h5.515v3.33A7.117,7.117,0,0,1,51.3,19.211a6.4,6.4,0,0,1,6.517,4.44,7.042,7.042,0,0,1,6.948-4.44C69.029,19.211,71.715,22.075,71.715,26.588Z"/>
    <path class="cls-1" d="M96.822,29.166c0,5.838-3.546,9.741-8.953,9.741A7.288,7.288,0,0,1,81.674,35.9V45.64H76.158V19.426h5.516v2.829a7.135,7.135,0,0,1,6.088-3.009C93.169,19.246,96.822,23.222,96.822,29.166Zm-5.587-.179c0-3.08-1.933-5.3-4.762-5.3s-4.8,2.184-4.8,5.3c0,3.188,1.969,5.336,4.8,5.336S91.235,32.139,91.235,28.987Z"/>
    <path class="cls-1" d="M106.852,34.037a4.511,4.511,0,0,0,1.862-.537l.537,4.584a8.654,8.654,0,0,1-3.653.859c-3.223,0-5.945-2.149-5.945-6.626v-20.2h5.479V31.96C105.132,33.393,105.849,34.037,106.852,34.037Z"/>
    <path class="cls-1" d="M129.987,19.426V36.687c0,5.479-4.01,9.2-9.991,9.167a15.765,15.765,0,0,1-8.452-2.685l1.361-3.9a13.116,13.116,0,0,0,6.482,2.112c3.116,0,5.121-1.862,5.121-4.8V33.786a6.921,6.921,0,0,1-6.267,3.33c-4.584,0-7.449-2.9-7.449-7.413V19.426h5.515v8.666a3.577,3.577,0,0,0,3.8,3.939c2.756-.036,4.4-2.006,4.4-5.121V19.426Z"/>
    <path class="cls-2" d="M140.033,35.711a3.236,3.236,0,1,1-6.467,0,3.235,3.235,0,1,1,6.467,0Z"/>
  </g>
  <g>
    <path class="cls-1" d="M6.07,56.268l2.7,9.524,2.681-9.524H13.29l2.7,9.524,2.682-9.524h1.936L16.893,67.984h-1.92l-2.635-9.139L9.672,67.984H7.736L4.055,56.268Z"/>
    <path class="cls-1" d="M31.827,56.268v1.773H25.765v3.181h5.427v1.757H25.765V66.21h6.252v1.774H23.892V56.268Z"/>
    <path class="cls-1" d="M44.84,59.2a2.568,2.568,0,0,1-1.952,2.612,2.8,2.8,0,0,1,2.38,2.963c0,2.008-1.539,3.213-4.046,3.213H36.286V56.268H41.11C43.411,56.268,44.84,57.372,44.84,59.2Zm-1.921.352c0-.971-.714-1.524-1.9-1.507H38.159v3.08h2.856C42.205,61.121,42.919,60.553,42.919,59.548Zm.429,4.972c0-1.039-.873-1.674-2.333-1.658H38.159V66.21h2.856C42.475,66.227,43.348,65.607,43.348,64.52Z"/>
    <path class="cls-1" d="M58.091,56.268v5.087h5.888V56.268h1.873V67.984H63.979V63.13H58.091v4.854H56.219V56.268Z"/>
    <path class="cls-1" d="M81.61,62.126a5.888,5.888,0,1,1-5.887-5.909A5.833,5.833,0,0,1,81.61,62.126Zm-9.87,0a3.979,3.979,0,1,0,7.95,0,3.978,3.978,0,1,0-7.95,0Z"/>
    <path class="cls-1" d="M89.1,58.041c-1.095,0-1.809.436-1.809,1.223,0,2.56,6,1.188,5.982,5.406,0,2.093-1.746,3.382-4.189,3.382a6.64,6.64,0,0,1-4.539-1.859l.809-1.707a5.709,5.709,0,0,0,3.761,1.707c1.3,0,2.079-.518,2.079-1.422,0-2.612-6-1.156-6-5.324,0-2.009,1.634-3.263,4.046-3.263a6.966,6.966,0,0,1,3.889,1.205l-.778,1.741A6.391,6.391,0,0,0,89.1,58.041Z"/>
    <path class="cls-1" d="M105.035,56.268v1.773h-3.523v9.943H99.639V58.041H96.132V56.268Z"/>
    <path class="cls-1" d="M110.494,56.268V67.984h-1.872V56.268Z"/>
    <path class="cls-1" d="M117.238,56.268l5.951,8.419V56.268h1.841V67.984h-1.841l-5.919-8.4v8.4H115.4V56.268Z"/>
    <path class="cls-1" d="M137.553,62.227h1.635v4.318a7.278,7.278,0,0,1-4.317,1.523,5.926,5.926,0,0,1,.11-11.851,6.467,6.467,0,0,1,4.269,1.64l-1.062,1.456a4.7,4.7,0,0,0-3.207-1.338A4.161,4.161,0,0,0,135,66.294a4.988,4.988,0,0,0,2.555-.8Z"/>
  </g>
</svg>
