<svg id="Mỗi_hình_1_layer_riêng" data-name="Mỗi hình 1 layer riêng" xmlns="http://www.w3.org/2000/svg" xmlns:xlink="http://www.w3.org/1999/xlink" viewBox="0 0 4680 3120">
  <defs>
    <style>
      .cls-1, .cls-10, .cls-29, .cls-3 {
        fill: #7bb1e8;
      }

      .cls-1 {
        clip-rule: evenodd;
      }

      .cls-2, .cls-9 {
        fill: #cce4ff;
      }

      .cls-4 {
        fill: #366d99;
      }

      .cls-25, .cls-30, .cls-5 {
        fill: #fff;
      }

      .cls-6 {
        fill: #fcb45e;
      }

      .cls-7 {
        fill: url(#linear-gradient);
      }

      .cls-8 {
        fill: #cacfff;
      }

      .cls-9 {
        opacity: 0.44;
      }

      .cls-10 {
        fill-rule: evenodd;
      }

      .cls-11 {
        clip-path: url(#clip-path);
      }

      .cls-12 {
        clip-path: url(#clip-path-2);
      }

      .cls-13 {
        fill: #083b6e;
      }

      .cls-14 {
        clip-path: url(#clip-path-3);
      }

      .cls-15 {
        clip-path: url(#clip-path-4);
      }

      .cls-16 {
        fill: #ffc5d6;
        opacity: 0.63;
      }

      .cls-17 {
        clip-path: url(#clip-path-5);
      }

      .cls-18 {
        clip-path: url(#clip-path-6);
      }

      .cls-19 {
        fill: #e8881f;
      }

      .cls-20 {
        clip-path: url(#clip-path-7);
      }

      .cls-21 {
        clip-path: url(#clip-path-8);
      }

      .cls-22 {
        fill: url(#linear-gradient-2);
      }

      .cls-23, .cls-29 {
        opacity: 0.33;
      }

      .cls-24 {
        clip-path: url(#clip-path-9);
      }

      .cls-25 {
        opacity: 0.56;
      }

      .cls-26 {
        fill: url(#linear-gradient-3);
      }

      .cls-27 {
        clip-path: url(#clip-path-10);
      }

      .cls-28 {
        clip-path: url(#clip-path-11);
      }

      .cls-30 {
        opacity: 0.53;
      }

      .cls-31 {
        fill: #a9b5fc;
      }
    </style>
    <linearGradient id="linear-gradient" x1="3359.586" y1="902.387" x2="3532.183" y2="902.387" gradientUnits="userSpaceOnUse">
      <stop offset="0" stop-color="#5f6ae1"/>
      <stop offset="1" stop-color="#747fff"/>
    </linearGradient>
    <clipPath id="clip-path">
      <path class="cls-1" d="M1115.554,1581.575a1.662,1.662,0,0,1,.822,1.987c-.979,5.772-1.936,11.549-2.783,17.342a1.772,1.772,0,0,1-1.531,1.687q-12.828,3.747-25.642,7.555l-2.278.675c1.526,14.726,3.046,29.388,4.577,44.161l16.918,1.364c4.065.329,8.128.691,12.2.963a1.769,1.769,0,0,1,1.794,1.408c1.985,5.392,4.023,10.766,6.157,16.1a1.978,1.978,0,0,1-.476,2.52c-6.292,6.543-12.511,13.154-18.8,19.695-.906.94-1.1,1.538-.248,2.7q12.215,16.693,24.306,33.479c.233.321.474.638.8,1.078,1.566-.734,3.118-1.453,4.662-2.186,7.168-3.4,14.348-6.777,21.484-10.244a2.078,2.078,0,0,1,2.666.44c4.32,3.6,8.745,7.082,13.076,10.672a2.454,2.454,0,0,1,.911,1.871c-2.118,9.142-4.335,18.26-6.535,27.384l40.949,18.312c1.415-2.051,2.781-4.033,4.148-6.007,3.89-5.624,7.808-11.229,11.647-16.887a1.894,1.894,0,0,1,2.281-.866c5.6.966,11.207,1.9,16.834,2.7a2.09,2.09,0,0,1,2.046,1.776c2.512,8.67,5.085,17.322,7.641,25.978.161.547.345,1.085.552,1.731l44.06-4.569c.075-.634.166-1.238.215-1.845.732-8.989,1.481-17.977,2.161-26.97a2.088,2.088,0,0,1,1.626-2.176c5.3-1.907,10.556-3.93,15.784-6.021a2.084,2.084,0,0,1,2.665.44c6.579,6.335,13.221,12.6,19.836,18.9.642.612,1.1,1.171,2.136.411q17.265-12.608,34.6-25.122a2.452,2.452,0,0,0,.3-.376c-.922-1.958-1.868-3.978-2.824-5.993-3.18-6.7-6.341-13.41-9.575-20.083a1.977,1.977,0,0,1,.359-2.541q5.469-6.54,10.736-13.245a1.9,1.9,0,0,1,2.3-.812c8.984,2.206,17.986,4.341,26.983,6.493.446.107.9.165,1.353.245l18.028-40.312q-9.043-6.308-18.087-12.613c-1.98-1.379-3.932-2.8-5.959-4.106a1.659,1.659,0,0,1-.834-1.98c.98-5.769,1.937-11.545,2.789-17.335a1.763,1.763,0,0,1,1.509-1.7q12.827-3.744,25.633-7.555l2.309-.684c-1.523-14.691-3.043-29.346-4.577-44.15-3.958-.325-7.832-.644-11.707-.959-5.781-.47-11.559-.957-17.342-1.383a1.756,1.756,0,0,1-1.841-1.34q-3.023-8.252-6.289-16.411a1.762,1.762,0,0,1,.543-2.211c6.267-6.561,12.5-13.158,18.788-19.694.946-.982,1.17-1.6.263-2.834-8.05-10.978-16.01-22.021-24-33.045-.332-.457-.672-.907-1.075-1.451-4.68,2.22-9.293,4.4-13.9,6.593-4.153,1.972-8.318,3.92-12.445,5.944a1.764,1.764,0,0,1-2.248-.342q-6.62-5.5-13.373-10.84a1.9,1.9,0,0,1-.8-2.306c2.2-8.982,4.338-17.979,6.489-26.973.107-.445.165-.9.245-1.352l-40.313-18.028q-6.8,9.75-13.6,19.5c-1.018,1.461-2.091,2.889-3.022,4.4a1.846,1.846,0,0,1-2.249.944c-5.6-.978-11.2-1.915-16.825-2.714a2.2,2.2,0,0,1-2.155-1.869c-2.544-8.836-5.169-17.649-7.771-26.469-.1-.328-.213-.65-.377-1.147l-44.121,4.575c-.269,3.268-.535,6.457-.8,9.645-.525,6.468-1.082,12.933-1.538,19.406a1.874,1.874,0,0,1-1.522,1.887c-5.335,1.967-10.661,3.967-15.932,6.1a2.082,2.082,0,0,1-2.647-.527c-6.5-6.242-13.069-12.42-19.564-18.672-.986-.949-1.608-1.161-2.839-.257-11.027,8.083-22.117,16.079-33.186,24.1-.41.3-.81.608-1.3.976,2.217,4.676,4.4,9.29,6.592,13.9,1.947,4.1,3.853,8.223,5.874,12.288a1.959,1.959,0,0,1-.393,2.532q-5.456,6.546-10.727,13.244a1.9,1.9,0,0,1-2.3.794c-8.982-2.2-17.979-4.339-26.974-6.49-.444-.106-.9-.164-1.352-.243L1091.5,1564.85q9.046,6.309,18.1,12.617C1111.573,1578.847,1113.526,1580.267,1115.554,1581.575Zm183.589-58.34a100.678,100.678,0,1,1-133.023,50.687A100.745,100.745,0,0,1,1299.143,1523.235Z"/>
    </clipPath>
    <clipPath id="clip-path-2">
      <path class="cls-2" d="M1044.345,1866.209s315.515,458.254,822.917,581.057c554.511,134.2,1079.526,17.7,1663.532-480.773l-461.109-234.979S2705.91,2000.908,2178.928,1948.8s-751.145-327.223-751.145-327.223Z"/>
    </clipPath>
    <clipPath id="clip-path-3">
      <path class="cls-4" d="M2337.22,910.809s-24.928-25.071-32.619-70.542,54.248-105.692,165.839-101.759,195.16,62.923,200.567,160.258-49.473,192.975-133.22,210.89Z"/>
    </clipPath>
    <clipPath id="clip-path-4">
      <path class="cls-5" d="M2431.6,1219.772l-24.579-6.391s-141.577,34.411-187.3,77.671-154.85,337.721-166.648,367.216c0,0,36.132,103.233,154.85,84.061l8.358,209.652s433.951,32.742,600.108-90.154l-16.1-99.834s95.368,12.781,157.308-40.31c0,0-35.395-125.519-51.781-182.215s-38.344-158.291-63.906-200.9-153.048-121.258-251.365-129.123c0,0-11.47,8.521-12.454,9.176S2431.6,1219.772,2431.6,1219.772Z"/>
    </clipPath>
    <clipPath id="clip-path-5">
      <path class="cls-2" d="M2334.092,880.577s-14.57,187.3,18.367,229.079,89.96,13.765,99.792,16.714,13.109,60.466-11.8,73.9-33.428,13.109-33.428,13.109,16.386,58.991,72.1,61.285,74.722-12.454,90.78-31.134,20.647-34.083,20.647-34.083-34.739-10-39-24.58-12.618-68.986-8.849-80.128-4.1-24.252-9.668-38.508-3.605-20.974,8.685-25.4,19.5-20.646,17.042-38.835-26.382-41.13-48.012-14.584c0,0-.737-38.508-1.229-59.4s-18.435-34.9-39.573-34.9S2412.568,903.436,2334.092,880.577Z"/>
    </clipPath>
    <clipPath id="clip-path-6">
      <path class="cls-6" d="M2798.858,1757.077s7.866,26.546,0,56.041-85.208,209.252-180.33,322.072l10.9,146.329s90.124-112.41,126.256-159.6,161.978-240.141,177.708-269.636,0-112.9,0-112.9Z"/>
    </clipPath>
    <clipPath id="clip-path-7">
      <path class="cls-3" d="M1630.581,1224.09s-86.906-66.373-26-119.2c64.34-55.8,122.348,42.514,122.348,42.514s108.64-46.7,236.453,128.8l-277.747,204.5S1574.048,1317.983,1630.581,1224.09Z"/>
    </clipPath>
    <clipPath id="clip-path-8">
      <path class="cls-3" d="M1496.81,1883.23c0,22.32-58.133,40.414-129.843,40.414s-129.843-18.094-129.843-40.414,58.133-59.983,129.843-59.983S1496.81,1860.911,1496.81,1883.23Z"/>
    </clipPath>
    <linearGradient id="linear-gradient-2" x1="3200.389" y1="2086.455" x2="3433.174" y2="2086.455" xlink:href="#linear-gradient"/>
    <clipPath id="clip-path-9">
      <polygon class="cls-3" points="3174.082 2083.653 3190.676 2081.185 3417.661 1927.063 3106.679 1745.279 2883.781 1893.339 2895.222 1918.168 3174.082 2083.653"/>
    </clipPath>
    <linearGradient id="linear-gradient-3" x1="2883.781" y1="2031.852" x2="3201.75" y2="2031.852" xlink:href="#linear-gradient"/>
    <clipPath id="clip-path-10">
      <polygon class="cls-4" points="3174.082 1980.42 3190.676 1977.951 3417.661 1823.829 3106.679 1642.046 2883.781 1790.106 2895.222 1814.934 3174.082 1980.42"/>
    </clipPath>
    <clipPath id="clip-path-11">
      <path class="cls-3" d="M1588.532,1582.693s502.894,300.066,1018.323,149.477l33.752,574.975s-583.1,190.956-988.66-147.111Z"/>
    </clipPath>
  </defs>
  <g>
    <g>
      <path class="cls-2" d="M3575.7,691.4c0-23.949-23.982-43.363-53.565-43.363H2806.468c-29.584,0-53.566,19.414-53.566,43.363v67.243h822.8Z"/>
      <path class="cls-3" d="M2752.9,758.644v439.911c0,23.949,23.982,43.363,53.566,43.363h715.666c29.583,0,53.565-19.414,53.565-43.363V758.644Z"/>
    </g>
    <g>
      <circle class="cls-5" cx="3248.179" cy="700.821" r="25.612"/>
      <circle class="cls-5" cx="3359.586" cy="700.821" r="25.612"/>
      <circle class="cls-5" cx="3470.993" cy="700.821" r="25.612"/>
    </g>
    <g>
      <path class="cls-7" d="M3457.522,979.883l74.661-19.7a177.757,177.757,0,0,0-172.6-135.3v77.177A100.547,100.547,0,0,1,3457.522,979.883Z"/>
      <g>
        <path class="cls-5" d="M3259.077,1002.577a100.508,100.508,0,0,1,100.509-100.509V824.891a177.687,177.687,0,0,0-136.367,291.6l57.844-51.181A100.074,100.074,0,0,1,3259.077,1002.577Z"/>
        <path class="cls-8" d="M3532.183,960.188l-74.661,19.7a100.769,100.769,0,0,1,2.573,22.781c-.047,55.546-45.816,100.879-101.361,100.418a100.317,100.317,0,0,1-77.671-37.771l-57.844,51.181a177.745,177.745,0,0,0,308.964-156.3Z"/>
      </g>
    </g>
    <g>
      <rect class="cls-5" x="2812.791" y="854.93" width="314.449" height="38.874" rx="19.437"/>
      <rect class="cls-5" x="2812.791" y="935.22" width="314.449" height="38.874" rx="19.437"/>
      <rect class="cls-5" x="2812.791" y="1015.509" width="314.449" height="38.874" rx="19.437"/>
      <rect class="cls-5" x="2812.791" y="1095.798" width="314.449" height="38.874" rx="19.437"/>
    </g>
  </g>
  <g>
    <rect class="cls-9" x="1302.52" y="460" width="1019.338" height="908.854" rx="68.933"/>
    <g>
      <g>
        <rect class="cls-8" x="1513.334" y="566.271" width="655.114" height="40.834" rx="20.417"/>
        <rect class="cls-8" x="1630.509" y="662.142" width="345.311" height="40.834" rx="20.417"/>
        <rect class="cls-8" x="1630.509" y="758.012" width="655.114" height="40.834" rx="20.417"/>
        <rect class="cls-8" x="1513.334" y="853.883" width="194.848" height="40.834" rx="20.417"/>
        <rect class="cls-8" x="1735.035" y="853.883" width="288.721" height="40.834" rx="20.417"/>
        <rect class="cls-8" x="1630.509" y="949.753" width="305.365" height="40.834" rx="20.417"/>
        <rect class="cls-8" x="1630.509" y="1045.623" width="260.093" height="40.834" rx="20.417"/>
        <rect class="cls-8" x="1916.567" y="1045.623" width="290.94" height="40.834" rx="20.417"/>
        <rect class="cls-8" x="1513.334" y="1141.494" width="655.114" height="40.834" rx="20.417"/>
        <rect class="cls-8" x="1513.334" y="1236.635" width="205.561" height="40.834" rx="20.417"/>
      </g>
      <rect class="cls-8" x="1397.047" y="566.271" width="40.834" height="40.834" rx="20.417"/>
      <rect class="cls-8" x="1397.047" y="662.142" width="40.834" height="40.834" rx="20.417"/>
      <rect class="cls-8" x="1397.047" y="758.012" width="40.834" height="40.834" rx="20.417"/>
      <rect class="cls-8" x="1397.047" y="853.883" width="40.834" height="40.834" rx="20.417"/>
      <rect class="cls-8" x="1397.047" y="949.753" width="40.834" height="40.834" rx="20.417"/>
      <rect class="cls-8" x="1397.047" y="1045.909" width="40.834" height="40.834" rx="20.417"/>
      <rect class="cls-8" x="1396.825" y="1141.272" width="40.834" height="40.834" rx="20.417"/>
      <rect class="cls-8" x="1397.047" y="1236.635" width="40.834" height="40.834" rx="20.417"/>
    </g>
  </g>
  <g>
    <path class="cls-10" d="M1115.554,1581.575a1.662,1.662,0,0,1,.822,1.987c-.979,5.772-1.936,11.549-2.783,17.342a1.772,1.772,0,0,1-1.531,1.687q-12.828,3.747-25.642,7.555l-2.278.675c1.526,14.726,3.046,29.388,4.577,44.161l16.918,1.364c4.065.329,8.128.691,12.2.963a1.769,1.769,0,0,1,1.794,1.408c1.985,5.392,4.023,10.766,6.157,16.1a1.978,1.978,0,0,1-.476,2.52c-6.292,6.543-12.511,13.154-18.8,19.695-.906.94-1.1,1.538-.248,2.7q12.215,16.693,24.306,33.479c.233.321.474.638.8,1.078,1.566-.734,3.118-1.453,4.662-2.186,7.168-3.4,14.348-6.777,21.484-10.244a2.078,2.078,0,0,1,2.666.44c4.32,3.6,8.745,7.082,13.076,10.672a2.454,2.454,0,0,1,.911,1.871c-2.118,9.142-4.335,18.26-6.535,27.384l40.949,18.312c1.415-2.051,2.781-4.033,4.148-6.007,3.89-5.624,7.808-11.229,11.647-16.887a1.894,1.894,0,0,1,2.281-.866c5.6.966,11.207,1.9,16.834,2.7a2.09,2.09,0,0,1,2.046,1.776c2.512,8.67,5.085,17.322,7.641,25.978.161.547.345,1.085.552,1.731l44.06-4.569c.075-.634.166-1.238.215-1.845.732-8.989,1.481-17.977,2.161-26.97a2.088,2.088,0,0,1,1.626-2.176c5.3-1.907,10.556-3.93,15.784-6.021a2.084,2.084,0,0,1,2.665.44c6.579,6.335,13.221,12.6,19.836,18.9.642.612,1.1,1.171,2.136.411q17.265-12.608,34.6-25.122a2.452,2.452,0,0,0,.3-.376c-.922-1.958-1.868-3.978-2.824-5.993-3.18-6.7-6.341-13.41-9.575-20.083a1.977,1.977,0,0,1,.359-2.541q5.469-6.54,10.736-13.245a1.9,1.9,0,0,1,2.3-.812c8.984,2.206,17.986,4.341,26.983,6.493.446.107.9.165,1.353.245l18.028-40.312q-9.043-6.308-18.087-12.613c-1.98-1.379-3.932-2.8-5.959-4.106a1.659,1.659,0,0,1-.834-1.98c.98-5.769,1.937-11.545,2.789-17.335a1.763,1.763,0,0,1,1.509-1.7q12.827-3.744,25.633-7.555l2.309-.684c-1.523-14.691-3.043-29.346-4.577-44.15-3.958-.325-7.832-.644-11.707-.959-5.781-.47-11.559-.957-17.342-1.383a1.756,1.756,0,0,1-1.841-1.34q-3.023-8.252-6.289-16.411a1.762,1.762,0,0,1,.543-2.211c6.267-6.561,12.5-13.158,18.788-19.694.946-.982,1.17-1.6.263-2.834-8.05-10.978-16.01-22.021-24-33.045-.332-.457-.672-.907-1.075-1.451-4.68,2.22-9.293,4.4-13.9,6.593-4.153,1.972-8.318,3.92-12.445,5.944a1.764,1.764,0,0,1-2.248-.342q-6.62-5.5-13.373-10.84a1.9,1.9,0,0,1-.8-2.306c2.2-8.982,4.338-17.979,6.489-26.973.107-.445.165-.9.245-1.352l-40.313-18.028q-6.8,9.75-13.6,19.5c-1.018,1.461-2.091,2.889-3.022,4.4a1.846,1.846,0,0,1-2.249.944c-5.6-.978-11.2-1.915-16.825-2.714a2.2,2.2,0,0,1-2.155-1.869c-2.544-8.836-5.169-17.649-7.771-26.469-.1-.328-.213-.65-.377-1.147l-44.121,4.575c-.269,3.268-.535,6.457-.8,9.645-.525,6.468-1.082,12.933-1.538,19.406a1.874,1.874,0,0,1-1.522,1.887c-5.335,1.967-10.661,3.967-15.932,6.1a2.082,2.082,0,0,1-2.647-.527c-6.5-6.242-13.069-12.42-19.564-18.672-.986-.949-1.608-1.161-2.839-.257-11.027,8.083-22.117,16.079-33.186,24.1-.41.3-.81.608-1.3.976,2.217,4.676,4.4,9.29,6.592,13.9,1.947,4.1,3.853,8.223,5.874,12.288a1.959,1.959,0,0,1-.393,2.532q-5.456,6.546-10.727,13.244a1.9,1.9,0,0,1-2.3.794c-8.982-2.2-17.979-4.339-26.974-6.49-.444-.106-.9-.164-1.352-.243L1091.5,1564.85q9.046,6.309,18.1,12.617C1111.573,1578.847,1113.526,1580.267,1115.554,1581.575Zm183.589-58.34a100.678,100.678,0,1,1-133.023,50.687A100.745,100.745,0,0,1,1299.143,1523.235Z"/>
    <g class="cls-11">
      <circle class="cls-3" cx="1210.48" cy="1591.613" r="163.945"/>
    </g>
  </g>
  <g>
    <path class="cls-3" d="M1066.958,1867.192l-22.613-.983V1987.14s173.793,221.765,330.347,331.821C1604.755,2480.693,2174,2751.28,2856.827,2481.185c553.036-218.756,690.681-455.7,690.681-455.7l-16.714-58.991-26.546,2.95Z"/>
    <g>
      <path class="cls-2" d="M1044.345,1866.209s315.515,458.254,822.917,581.057c554.511,134.2,1079.526,17.7,1663.532-480.773l-461.109-234.979S2705.91,2000.908,2178.928,1948.8s-751.145-327.223-751.145-327.223Z"/>
      <g class="cls-12">
        <ellipse class="cls-2" cx="1395.415" cy="1884.254" rx="158.291" ry="58.971"/>
        <polygon class="cls-2" points="2868.714 1991.415 3195.756 2189.149 3432.728 2023.517 3122.373 1852.281 2868.714 1991.415"/>
      </g>
    </g>
  </g>
  <g>
    <path class="cls-13" d="M1965.825,2254.317c-1.966.246-10.55,9.078-10.55,9.078v40.081s406.688,86.11,785.7-20.073l48.011-212.2-8.848-45.717-17.7,16.222Z"/>
    <path class="cls-4" d="M2024.688,2060.449s498.843,40.247,755.452-34.965l-53.092,222.689s-376.536,93.384-771.773,15.222Z"/>
  </g>
  <g>
    <path class="cls-4" d="M2337.22,910.809s-24.928-25.071-32.619-70.542,54.248-105.692,165.839-101.759,195.16,62.923,200.567,160.258-49.473,192.975-133.22,210.89Z"/>
    <g class="cls-14">
      <path class="cls-13" d="M2292.977,827.485s22.859,29.25,119.455,30.725,127.813-1.721,134.7,35.148-1.72,68.085-2.949,104.462,18.189,94.631,96.351,49.9l-69.8,75.705-66.505-.832s-50.616-96.395-53.324-99.08S2458.15,920.4,2458.15,920.4l-135.186,8.849-52.6-90.452Z"/>
    </g>
  </g>
  <g>
    <path class="cls-5" d="M2431.6,1219.772l-24.579-6.391s-141.577,34.411-187.3,77.671-154.85,337.721-166.648,367.216c0,0,36.132,103.233,154.85,84.061l8.358,209.652s433.951,32.742,600.108-90.154l-16.1-99.834s95.368,12.781,157.308-40.31c0,0-35.395-125.519-51.781-182.215s-38.344-158.291-63.906-200.9-153.048-121.258-251.365-129.123c0,0-11.47,8.521-12.454,9.176S2431.6,1219.772,2431.6,1219.772Z"/>
    <g class="cls-15">
      <path class="cls-16" d="M2822.17,1790.106l-21.875-28.113-15.731-4.916s-22.613-186.8-31.707-347.306c0,0,15.485,434.159-192.457,489.542s-355.417,38.277-355.417,38.277,82.586,74.623,82.586,72.41,445.42-50.931,445.42-50.931l95.818-44.6Z"/>
      <path class="cls-16" d="M2189.8,1769.34l18.131-27.011s29.5-218.264,45.718-324.447c0,0-83.844,299.553-200.568,302.326L2189.8,1769.34"/>
      <path class="cls-16" d="M2583.013,1199.863c0,.737-4.916,18.762-4.916,18.762s58.991,12.945,112.082,38.016,130.271,61.94,151.409,124.372,98.793,358.367,98.793,358.367l60.973-10.324L2876,1258.607Z"/>
    </g>
  </g>
  <g>
    <path class="cls-2" d="M2334.092,880.577s-14.57,187.3,18.367,229.079,89.96,13.765,99.792,16.714,13.109,60.466-11.8,73.9-33.428,13.109-33.428,13.109,16.386,58.991,72.1,61.285,74.722-12.454,90.78-31.134,20.647-34.083,20.647-34.083-34.739-10-39-24.58-12.618-68.986-8.849-80.128-4.1-24.252-9.668-38.508-3.605-20.974,8.685-25.4,19.5-20.646,17.042-38.835-26.382-41.13-48.012-14.584c0,0-.737-38.508-1.229-59.4s-18.435-34.9-39.573-34.9S2412.568,903.436,2334.092,880.577Z"/>
    <g class="cls-17">
      <path class="cls-3" d="M2317.31,898.274s11.553,15.731,64.644,18.68,94.385-11.306,104.217,10.815S2500.1,1006.1,2500.1,1006.1s32.281-31.871,65.463-17.861l7.374-18.188-52.109-4.67-4.424,5.9,4.424-78.654L2449.056,870.5l-122.9-5.9Z"/>
      <path class="cls-3" d="M2450.838,1130.3c.061-.553-1.8-4.1-1.8-4.1s47.575-11.509,65.764-22.2-13.4,30.356-48.668,41.539S2450.838,1130.3,2450.838,1130.3Z"/>
    </g>
  </g>
  <g>
    <path class="cls-6" d="M2798.858,1757.077s7.866,26.546,0,56.041-85.208,209.252-180.33,322.072l10.9,146.329s90.124-112.41,126.256-159.6,161.978-240.141,177.708-269.636,0-112.9,0-112.9Z"/>
    <g class="cls-18">
      <path class="cls-19" d="M2850.928,1745.279s43.87,8.287,53.4,31.181,2.153,62.406-26.851,116.879-278.73,401.244-278.73,401.244l65.565,7.7,308.041-408.947,23.605-115.6-45.46-81.233Z"/>
    </g>
  </g>
  <rect class="cls-4" x="1483.776" y="1081.153" width="34.486" height="398.154" transform="translate(1472.801 -692.396) rotate(48.719)"/>
  <g>
    <g>
      <path class="cls-3" d="M1630.581,1224.09s-86.906-66.373-26-119.2c64.34-55.8,122.348,42.514,122.348,42.514s108.64-46.7,236.453,128.8l-277.747,204.5S1574.048,1317.983,1630.581,1224.09Z"/>
      <g class="cls-20">
        <path class="cls-4" d="M1677.837,1084.586s22.225,75.26-.035,104.433c0,0,30.186-39.544,92.781-33.317s156.981,115.031,156.981,115.031l46.864,11.8-18.025-61.94-154.03-90.124-73.411,8.849Z"/>
      </g>
    </g>
    <ellipse class="cls-4" cx="1824.706" cy="1378.751" rx="172.428" ry="55.672" transform="translate(-462.266 1362.372) rotate(-36.664)"/>
    <path class="cls-5" d="M1757.129,1397.06s42.532-54.868,103.115-78.238c0,0,53.937,54.529-7.113,99.576S1757.129,1397.06,1757.129,1397.06Z"/>
    <rect class="cls-4" x="1329.624" y="1439.913" width="34.486" height="398.154" transform="translate(2871.272 3114.295) rotate(173.474)"/>
    <circle class="cls-4" cx="1330.57" cy="1434.07" r="57.024"/>
    <circle class="cls-3" cx="1330.57" cy="1434.07" r="30.129"/>
    <g>
      <path class="cls-3" d="M1496.81,1883.23c0,22.32-58.133,40.414-129.843,40.414s-129.843-18.094-129.843-40.414,58.133-59.983,129.843-59.983S1496.81,1860.911,1496.81,1883.23Z"/>
      <g class="cls-21">
        <path class="cls-4" d="M1262.118,1836.714s-17.7,43.751,32.937,50.142,109.623,9.832,143.543-7.865S1449.08,1830,1449.08,1830l58.927,19.529,12.11,57.867-44.65,33.042-214.824,3.933-41.917-57.985Z"/>
      </g>
    </g>
  </g>
  <g>
    <polygon class="cls-22" points="3362.323 2038.127 3431.813 2002.546 3433.174 2013.046 3201.75 2170.364 3200.389 2159.863 3362.323 2038.127"/>
    <polygon class="cls-8" points="3178.99 2133.096 3200.389 2159.863 3431.813 2002.546 3112.875 1799.739 2893.495 1972.018 3178.99 2133.096"/>
    <path class="cls-5" d="M3411.608,2006.425s-42.807-19.7-1.5-79.063L3183.956,2078.5l8.654,74.372Z"/>
    <polygon class="cls-8" points="3360.926 1954.051 3417.661 1927.063 3419.184 1938.815 3192.199 2092.937 3190.676 2081.185 3191.414 2074.948 3360.926 1954.051"/>
    <g class="cls-23">
      <polygon class="cls-3" points="3174.082 2083.653 3190.676 2081.185 3417.661 1927.063 3106.679 1745.279 2883.781 1893.339 2895.222 1918.168 3174.082 2083.653"/>
      <g class="cls-24">
        <path class="cls-3" d="M2976.922,1803.151c1.9,1.465,121.072,18.539,202.919,99.785s115.169,140.255,115.169,140.255L3459.96,1939.9l-210.707-139.12-195.19-54.745Z"/>
      </g>
    </g>
    <polygon class="cls-25" points="3358.79 1919.687 3171.168 2040.824 3097.88 1998.361 3287.562 1877.315 3358.79 1919.687"/>
    <polygon class="cls-26" points="2894.856 1982.518 2883.781 1893.339 3190.676 2081.185 3201.75 2170.364 2894.856 1982.518"/>
  </g>
  <g>
    <polygon class="cls-4" points="3362.323 1934.894 3431.813 1899.313 3433.174 1909.813 3201.75 2067.13 3200.389 2056.63 3362.323 1934.894"/>
    <polygon class="cls-13" points="3178.99 2029.862 3200.389 2056.63 3431.813 1899.313 3112.875 1696.506 2893.495 1868.785 3178.99 2029.862"/>
    <path class="cls-5" d="M3411.608,1903.192s-42.807-19.7-1.5-79.063l-226.155,151.136,8.654,74.371Z"/>
    <polygon class="cls-13" points="3360.926 1850.818 3417.661 1823.829 3419.184 1835.581 3192.199 1989.704 3190.676 1977.951 3191.414 1971.715 3360.926 1850.818"/>
    <g>
      <polygon class="cls-4" points="3174.082 1980.42 3190.676 1977.951 3417.661 1823.829 3106.679 1642.046 2883.781 1790.106 2895.222 1814.934 3174.082 1980.42"/>
      <g class="cls-27">
        <path class="cls-13" d="M2976.922,1699.918c1.9,1.465,121.072,18.538,202.919,99.784s115.169,140.256,115.169,140.256l164.95-103.292-210.707-139.119-151.373-86.471Z"/>
      </g>
    </g>
    <polygon class="cls-25" points="3358.79 1816.454 3171.168 1937.59 3097.88 1895.127 3287.562 1774.082 3358.79 1816.454"/>
    <polygon class="cls-13" points="2894.856 1879.285 2883.781 1790.106 3190.676 1977.951 3201.75 2067.13 2894.856 1879.285"/>
  </g>
  <g>
    <path class="cls-4" d="M1598.364,1594.853l-9.832-12.16,41.293-23.726s491.1,262.016,942.373,138.136l34.657,35.067-7.128,16.058s-280.2,109.133-572.207,22.613S1598.364,1594.853,1598.364,1594.853Z"/>
    <polygon class="cls-4" points="2114.569 2459.555 2118.463 2469.879 2214.978 2409.659 2070.452 2392.945 2114.569 2459.555"/>
    <polygon class="cls-3" points="1986.226 2316.012 1955.275 2445.791 2118.463 2469.879 2158.282 2341.574 1986.226 2316.012"/>
    <g>
      <path class="cls-3" d="M1588.532,1582.693s502.894,300.066,1018.323,149.477l33.752,574.975s-583.1,190.956-988.66-147.111Z"/>
      <g class="cls-28">
        <path class="cls-29" d="M1787.837,2299.661s296.215,67.839,563.147-171.072,261.033-441.06,261.033-441.06l51.617,664.37-550.087,59.844Z"/>
      </g>
    </g>
    <ellipse class="cls-30" cx="2070.085" cy="2018.153" rx="106.877" ry="114.81" transform="translate(-125.328 137.102) rotate(-3.682)"/>
  </g>
  <g>
    <rect class="cls-31" x="801.698" y="823.686" width="379.638" height="271.331" rx="48.941"/>
    <g>
      <path class="cls-5" d="M836.306,944.294l97-45.064v21.421L859.95,952.782v.4l73.356,32.131v21.421l-97-45.065Z"/>
      <path class="cls-5" d="M957.1,1026.239l43.246-146.51h20.41l-43.246,146.51Z"/>
      <path class="cls-5" d="M1135.869,962.28l-97,44.458V985.317l74.974-32.131v-.4l-74.974-32.131V899.23l97,44.459Z"/>
    </g>
  </g>
  <g>
    <rect class="cls-31" x="3139.55" y="1407.653" width="327.955" height="234.392" rx="42.278"/>
    <g>
      <path class="cls-5" d="M3200.092,1510.038c13.424-.584,14.786-7.588,14.786-13.424a143.884,143.884,0,0,0-1.167-15.175,141.632,141.632,0,0,1-.973-15.369c0-18.287,11.478-26.264,29.571-26.264h6.809v16.537h-3.5c-8.754,0-11.867,5.252-11.867,13.812,0,3.5.583,7,.973,11.09a127.415,127.415,0,0,1,.972,13.424c.2,14.591-5.836,20.232-16.536,22.567v.389c10.7,2.141,16.731,7.782,16.536,22.568a135.592,135.592,0,0,1-.972,13.618c-.39,4.085-.973,7.587-.973,10.895,0,8.56,2.918,14.008,11.867,14.008h3.5v16.341h-7c-17.315,0-29.376-7-29.376-26.458a141.632,141.632,0,0,1,.973-15.369,136.648,136.648,0,0,0,1.167-14.98c0-5.448-1.362-12.841-14.786-13.424Z"/>
      <path class="cls-5" d="M3271.218,1582.508a349.187,349.187,0,0,0,14.2-55.252l29.765-1.945c-6.419,19.844-15.174,40.271-24.513,55.446Zm10.505-101.554c0-10.5,7-17.9,17.315-17.9s17.12,7.2,17.315,17.9c0,10.116-6.809,17.7-17.315,17.7C3288.727,1498.657,3281.529,1491.07,3281.723,1480.954Z"/>
      <path class="cls-5" d="M3392.618,1524.824c-13.229.583-14.785,7.976-14.785,13.424a136.4,136.4,0,0,0,1.167,14.98,143.254,143.254,0,0,1,1.167,15.369c0,19.455-12.062,26.458-29.571,26.458h-7v-16.341h3.5c8.949-.195,11.867-5.448,11.867-14.008a77.8,77.8,0,0,0-.972-10.895,135.573,135.573,0,0,1-.973-13.618c-.194-14.786,5.837-20.427,16.731-22.568v-.389c-10.894-2.335-16.925-7.976-16.731-22.567a127.394,127.394,0,0,1,.973-13.424,77.935,77.935,0,0,0,.972-11.09c0-8.56-3.112-13.618-11.867-13.812h-3.5v-16.537h6.809c18.288,0,29.766,7.977,29.766,26.264a143.254,143.254,0,0,1-1.167,15.369,143.618,143.618,0,0,0-1.167,15.175c0,5.836,1.556,12.84,14.785,13.424Z"/>
    </g>
  </g>
</svg>
